<svg width="24" height="24" viewBox="0 0 24 24" fill="none" xmlns="http://www.w3.org/2000/svg">
<path d="M11.1349 14.3994C10.6486 14.2685 10.2133 14.0289 9.90913 13.7249C9.77747 13.5935 9.60248 13.5211 9.41639 13.5211C9.2303 13.5211 9.05532 13.5936 8.92355 13.7252L8.87029 13.7784C8.73904 13.9095 8.66459 14.0912 8.66591 14.277C8.66738 14.4626 8.74471 14.6431 8.87815 14.7724C9.47173 15.3473 10.3102 15.763 11.1785 15.9128L11.2627 15.9273V16.5855C11.2627 16.9698 11.5753 17.2826 11.9598 17.2826H12.0388C12.4231 17.2826 12.7358 16.9698 12.7358 16.5855V15.912L12.8183 15.8964C14.2596 15.622 15.1202 14.7211 15.1202 13.4875C15.1328 11.81 13.8902 11.1976 12.8065 10.8515L12.7358 10.829V8.56939L12.859 8.5963C13.1785 8.66618 13.4637 8.77296 13.6839 8.90523C13.7924 8.9702 13.9161 9.00451 14.0419 9.00451C14.2842 9.00451 14.5054 8.88202 14.6336 8.67677L14.6689 8.62017C14.7672 8.46297 14.7988 8.26948 14.7559 8.08942C14.7129 7.90906 14.5973 7.75054 14.4387 7.65456C13.9944 7.38572 13.4202 7.18722 12.8218 7.09569L12.7358 7.08252V6.58486C12.7358 6.20048 12.4231 5.8877 12.0388 5.8877H11.9598C11.5753 5.8877 11.2627 6.20043 11.2627 6.58486V7.11941L11.1813 7.13583C9.84938 7.40447 9.05415 8.24014 9.05415 9.37116C9.05415 10.5818 9.75406 11.4075 11.1939 11.8955L11.2627 11.9188V14.4337L11.1349 14.3994ZM12.7358 12.3894L12.8781 12.4517C13.4429 12.6996 13.6515 12.9775 13.6471 13.4786C13.6471 13.8959 13.3853 14.1935 12.869 14.3632L12.736 14.4068L12.7358 12.3894ZM11.1135 10.2578C10.6915 10.0323 10.5271 9.78377 10.5271 9.37121C10.5271 9.05762 10.7288 8.8243 11.1262 8.67774L11.2626 8.62742V10.3374L11.1135 10.2578Z" fill="#57627B"/>
<path d="M21.7558 5.52365C21.5503 5.35925 21.266 5.33482 21.0354 5.46177L19.6658 6.21595C17.9618 3.59765 15.051 2 11.8931 2C6.77945 2 2.61914 6.16026 2.61914 11.274C2.61914 11.8337 3.07296 12.2875 3.63269 12.2875C4.19252 12.2875 4.64624 11.8337 4.64624 11.274C4.64624 7.278 7.89719 4.02709 11.8931 4.02709C14.3101 4.02709 16.5426 5.22455 17.8849 7.19661L16.602 7.903C16.3715 8.02995 16.2402 8.28323 16.2694 8.54483C16.2983 8.80638 16.4822 9.02469 16.735 9.09792L20.1724 10.094C20.2318 10.1112 20.2926 10.1197 20.3534 10.1197C20.4621 10.1197 20.5702 10.0924 20.6672 10.039C20.8182 9.95574 20.9302 9.81587 20.9783 9.65015L21.9743 6.21281C22.0475 5.96003 21.9613 5.68804 21.7558 5.52365Z" fill="#57627B"/>
<path d="M20.3673 11.0713C19.8075 11.0713 19.3537 11.5251 19.3537 12.0848C19.3537 16.0808 16.1028 19.3317 12.1068 19.3317C9.68993 19.3317 7.45728 18.1342 6.11509 16.1622L7.39794 15.4558C7.62847 15.3289 7.75983 15.0756 7.73069 14.814C7.7017 14.5525 7.51789 14.3341 7.26506 14.261L3.82777 13.2649C3.76838 13.2476 3.70751 13.2392 3.64675 13.2392C3.538 13.2392 3.4299 13.2664 3.33291 13.3199C3.18179 13.4032 3.06984 13.543 3.0218 13.7087L2.02573 17.146C1.95251 17.3988 2.03871 17.6707 2.2442 17.8352C2.4497 17.9996 2.73395 18.0241 2.96458 17.8971L4.33414 17.1429C6.03811 19.7611 8.94892 21.3588 12.1068 21.3588C17.2204 21.3588 21.3808 17.1985 21.3808 12.0848C21.3808 11.5251 20.927 11.0713 20.3673 11.0713Z" fill="#57627B"/>
</svg>
