<svg width="24" height="24" viewBox="0 0 24 24" fill="none" xmlns="http://www.w3.org/2000/svg">
<path fill-rule="evenodd" clip-rule="evenodd" d="M9.56789 2.56789C9.95567 2.18011 10.4728 2 11 2H13C13.5272 2 14.0443 2.18011 14.4321 2.56789C14.8199 2.95567 15 3.47275 15 4V20C15 20.5272 14.8199 21.0443 14.4321 21.4321C14.0443 21.8199 13.5272 22 13 22H11C10.4728 22 9.95567 21.8199 9.56789 21.4321C9.18011 21.0443 9 20.5272 9 20V4C9 3.47275 9.18011 2.95567 9.56789 2.56789ZM13 4H11V20H13V4ZM16.5679 7.56789C16.9557 7.18011 17.4728 7 18 7H20C20.5272 7 21.0443 7.18011 21.4321 7.56789C21.8199 7.95567 22 8.47275 22 9V20C22 20.5272 21.8199 21.0443 21.4321 21.4321C21.0443 21.8199 20.5272 22 20 22H18C17.4728 22 16.9557 21.8199 16.5679 21.4321C16.1801 21.0443 16 20.5272 16 20V9C16 8.47275 16.1801 7.95567 16.5679 7.56789ZM20 9H18V20H20V9ZM2.56789 12.5679C2.95567 12.1801 3.47275 12 4 12H6C6.52725 12 7.04433 12.1801 7.43211 12.5679C7.81989 12.9557 8 13.4728 8 14V20C8 20.5272 7.81989 21.0443 7.43211 21.4321C7.04433 21.8199 6.52725 22 6 22H4C3.47275 22 2.95567 21.8199 2.56789 21.4321C2.18011 21.0443 2 20.5272 2 20V14C2 13.4728 2.18011 12.9557 2.56789 12.5679ZM6 14H4V20H6V14Z" fill="#57627B"/>
</svg>
