<svg width="11" height="19" viewBox="0 0 11 19" fill="none" xmlns="http://www.w3.org/2000/svg">
<path d="M5.74485 15.3631C3.01954 9.98612 -1 0.5 5.49998 0.5C11 0.5 7.99981 10 5.74485 15.3631Z" stroke="#CCE3E1" stroke-linejoin="round"/>
<path d="M5 11.5C2.51472 11.5 0.5 13.5147 0.5 16C0.5 17.1046 1.39543 18 2.5 18C3.09735 18 3.63353 17.7381 4 17.3229C4.36647 17.7381 4.90265 18 5.5 18C6.09735 18 6.63353 17.7381 7 17.3229C7.36647 17.7381 7.90265 18 8.5 18C9.60457 18 10.5 17.1046 10.5 16C10.5 13.5147 8.48528 11.5 6 11.5H5Z" fill="#24373E" stroke="#CCE3E1"/>
</svg>
