<svg width="166" height="160" viewBox="0 0 166 160" fill="none" xmlns="http://www.w3.org/2000/svg">
<path d="M165 80C165 124.183 129.183 160 85 160C40.8172 160 5 124.183 5 80C5 35.8172 40.8172 0 85 0C129.183 0 165 35.8172 165 80Z" fill="#818181" fill-opacity="0.05"/>
<circle cx="85" cy="79" r="65" fill="#818181" fill-opacity="0.1"/>
<path d="M126.416 57.3133C126.223 56.9464 125.77 56.8046 125.403 56.9968C125.036 57.1889 124.895 57.6422 125.087 58.0091L126.416 57.3133ZM94.0198 34.4308C94.3623 34.1978 94.451 33.7313 94.2181 33.3888L90.4213 27.8078C90.1883 27.4654 89.7218 27.3766 89.3794 27.6096C89.0369 27.8426 88.9481 28.3091 89.1811 28.6516L92.556 33.6124L87.5951 36.9873C87.2526 37.2203 87.1639 37.6868 87.3969 38.0293C87.6298 38.3717 88.0963 38.4605 88.4388 38.2275L94.0198 34.4308ZM125.087 58.0091C129.84 67.0857 131.371 77.5065 129.432 87.5668L130.905 87.8508C132.909 77.4569 131.326 66.6907 126.416 57.3133L125.087 58.0091ZM129.432 87.5668C127.492 97.6271 122.196 106.731 114.409 113.39L115.384 114.53C123.429 107.651 128.901 98.2446 130.905 87.8508L129.432 87.5668ZM114.409 113.39C106.622 120.049 96.8061 123.868 86.5667 124.223L86.6186 125.722C97.1975 125.355 107.339 121.41 115.384 114.53L114.409 113.39ZM86.5667 124.223C76.3272 124.578 66.2705 121.447 58.0416 115.343L57.148 116.548C65.6496 122.854 76.0397 126.088 86.6186 125.722L86.5667 124.223ZM58.0416 115.343C49.8128 109.239 43.899 100.523 41.2677 90.6211L39.818 91.0063C42.5365 101.237 48.6463 110.241 57.148 116.548L58.0416 115.343ZM41.2677 90.6211C38.6364 80.7191 39.4435 70.2173 43.5567 60.8336L42.1829 60.2314C37.9333 69.9262 37.0995 80.7761 39.818 91.0063L41.2677 90.6211ZM43.5567 60.8336C47.67 51.4499 54.846 43.7399 63.9109 38.9649L63.2118 37.6378C53.8464 42.5711 46.4325 50.5367 42.1829 60.2314L43.5567 60.8336ZM63.9109 38.9649C72.9757 34.1898 83.3927 32.6324 93.4578 34.5475L93.7381 33.0739C83.3394 31.0954 72.5771 32.7044 63.2118 37.6378L63.9109 38.9649Z" fill="#FF842D"/>
<circle cx="112" cy="43" r="15.25" stroke="#FF842D" stroke-width="1.5"/>
<path d="M110.742 39.2559V45.0249H114.203" stroke="#FF842D" stroke-width="1.5"/>
<path d="M104.5 39.9614L104.5 36.5H110.269" stroke="#FF842D" stroke-width="1.5"/>
<path d="M119.5 39.9614L119.5 36.5H113.731" stroke="#FF842D" stroke-width="1.5"/>
<path d="M119.5 46.1167L119.5 49.5781L113.731 49.5781" stroke="#FF842D" stroke-width="1.5"/>
<path d="M104.5 46.1167L104.5 49.5781L110.269 49.5781" stroke="#FF842D" stroke-width="1.5"/>
<circle cx="73" cy="68.9992" r="10.05" stroke="#FF842D" stroke-width="1.5"/>
<path d="M69.9643 86H69.2143V86.75H69.9643V86ZM69.9643 82.6338H70.7143V82.0318L70.1267 81.9015L69.9643 82.6338ZM76.0358 86V86.75H76.7858V86H76.0358ZM76.0358 82.6338L75.8734 81.9015L75.2858 82.0318V82.6338H76.0358ZM80.2429 80.9419L80.7732 80.4116L80.3567 79.995L79.8533 80.301L80.2429 80.9419ZM82.7143 83.4133L82.184 83.9436L82.7143 84.474L83.2446 83.9436L82.7143 83.4133ZM87.0074 79.1202L87.5378 79.6505L88.0681 79.1202L87.5378 78.5898L87.0074 79.1202ZM84.6259 76.7387L84.002 76.3225L83.6608 76.8342L84.0956 77.269L84.6259 76.7387ZM86.6336 72.0353V71.2853H86.0316L85.9014 71.8731L86.6336 72.0353ZM90 72.0353V72.7853H90.75V72.0353H90ZM90 65.9639H90.75V65.2139H90V65.9639ZM86.6333 65.9639L85.9011 66.1263L86.0314 66.7139H86.6333V65.9639ZM84.7069 61.3849L84.1766 60.8546L83.7464 61.2848L84.0786 61.7945L84.7069 61.3849ZM86.7633 59.3285L87.2936 59.8589L87.824 59.3285L87.2936 58.7982L86.7633 59.3285ZM82.4702 55.0354L83.0005 54.5051L82.4702 53.9747L81.9398 54.5051L82.4702 55.0354ZM80.3691 57.1365L79.9727 57.7732L80.4783 58.0879L80.8994 57.6668L80.3691 57.1365ZM76.0358 55.367H75.2858V55.9689L75.8734 56.0992L76.0358 55.367ZM76.0358 52H76.7858V51.25H76.0358V52ZM69.9643 52V51.25H69.2143V52H69.9643ZM69.9643 55.367L70.1267 56.0992L70.7143 55.9689V55.367H69.9643ZM65.2618 57.3745L64.7314 57.9048L65.1663 58.3397L65.6779 57.9984L65.2618 57.3745ZM62.9658 55.0785L63.4961 54.5482L62.9658 54.0179L62.4355 54.5482L62.9658 55.0785ZM58.6727 59.3717L58.1423 58.8414L57.612 59.3717L58.1423 59.902L58.6727 59.3717ZM61.0585 61.7576L61.6994 62.1471L62.0054 61.6437L61.5889 61.2272L61.0585 61.7576ZM59.3668 65.9639V66.7139H59.9687L60.099 66.1263L59.3668 65.9639ZM56 65.9639V65.2139H55.25V65.9639H56ZM56 72.0353H55.25V72.7853H56V72.0353ZM59.3665 72.0353L60.0987 71.8731L59.9685 71.2853H59.3665V72.0353ZM61.1362 76.3694L61.6665 76.8997L62.0876 76.4786L61.7729 75.9731L61.1362 76.3694ZM58.4285 79.077L57.8982 78.5467L57.3679 79.077L57.8982 79.6073L58.4285 79.077ZM62.7217 83.3702L62.1913 83.9005L62.7217 84.4308L63.252 83.9005L62.7217 83.3702ZM65.3846 80.7073L65.7941 80.079L65.2844 79.7467L64.8542 80.1769L65.3846 80.7073ZM70.7143 86V82.6338H69.2143V86H70.7143ZM76.0358 85.25H69.9643V86.75H76.0358V85.25ZM75.2858 82.6338V86H76.7858V82.6338H75.2858ZM79.8533 80.301C78.6407 81.0381 77.3004 81.5852 75.8734 81.9015L76.1981 83.366C77.7885 83.0134 79.282 82.4036 80.6324 81.5828L79.8533 80.301ZM83.2446 82.883L80.7732 80.4116L79.7125 81.4722L82.184 83.9436L83.2446 82.883ZM86.4771 78.5898L82.184 82.883L83.2446 83.9436L87.5378 79.6505L86.4771 78.5898ZM84.0956 77.269L86.4771 79.6505L87.5378 78.5898L85.1563 76.2083L84.0956 77.269ZM85.9014 71.8731C85.5437 73.4867 84.8909 74.9897 84.002 76.3225L85.2499 77.1548C86.2396 75.6708 86.9672 73.9962 87.3658 72.1976L85.9014 71.8731ZM90 71.2853H86.6336V72.7853H90V71.2853ZM89.25 65.9639V72.0353H90.75V65.9639H89.25ZM86.6333 66.7139H90V65.2139H86.6333V66.7139ZM84.0786 61.7945C84.9282 63.0978 85.5537 64.5599 85.9011 66.1263L87.3655 65.8015C86.9783 64.0556 86.2812 62.4266 85.3352 60.9754L84.0786 61.7945ZM86.233 58.7982L84.1766 60.8546L85.2373 61.9152L87.2936 59.8589L86.233 58.7982ZM81.9398 55.5657L86.233 59.8589L87.2936 58.7982L83.0005 54.5051L81.9398 55.5657ZM80.8994 57.6668L83.0005 55.5657L81.9398 54.5051L79.8387 56.6062L80.8994 57.6668ZM75.8734 56.0992C77.3474 56.426 78.7289 56.999 79.9727 57.7732L80.7654 56.4998C79.3803 55.6376 77.8409 54.9989 76.1981 54.6348L75.8734 56.0992ZM75.2858 52V55.367H76.7858V52H75.2858ZM69.9643 52.75H76.0358V51.25H69.9643V52.75ZM70.7143 55.367V52H69.2143V55.367H70.7143ZM65.6779 57.9984C67.0106 57.1096 68.5133 56.4569 70.1267 56.0992L69.802 54.6348C68.0037 55.0334 66.3294 55.7609 64.8456 56.7505L65.6779 57.9984ZM62.4355 55.6089L64.7314 57.9048L65.7921 56.8441L63.4961 54.5482L62.4355 55.6089ZM59.203 59.902L63.4961 55.6089L62.4355 54.5482L58.1423 58.8414L59.203 59.902ZM61.5889 61.2272L59.203 58.8414L58.1423 59.902L60.5282 62.2879L61.5889 61.2272ZM60.099 66.1263C60.4154 64.6996 60.9625 63.3596 61.6994 62.1471L60.4176 61.368C59.5969 62.7182 58.9872 64.2114 58.6346 65.8015L60.099 66.1263ZM56 66.7139H59.3668V65.2139H56V66.7139ZM56.75 72.0353V65.9639H55.25V72.0353H56.75ZM59.3665 71.2853H56V72.7853H59.3665V71.2853ZM61.7729 75.9731C60.9985 74.729 60.4254 73.3472 60.0987 71.8731L58.6343 72.1976C58.9984 73.8407 59.6371 75.3804 60.4994 76.7657L61.7729 75.9731ZM58.9589 79.6073L61.6665 76.8997L60.6058 75.8391L57.8982 78.5467L58.9589 79.6073ZM63.252 82.8398L58.9589 78.5467L57.8982 79.6073L62.1913 83.9005L63.252 82.8398ZM64.8542 80.1769L62.1913 82.8398L63.252 83.9005L65.9149 81.2376L64.8542 80.1769ZM70.1267 81.9015C68.56 81.5542 67.0977 80.9287 65.7941 80.079L64.975 81.3356C66.4265 82.2817 68.0558 82.9789 69.802 83.366L70.1267 81.9015Z" fill="#FF842D"/>
<circle cx="102" cy="86" r="8.25" stroke="#FF842D" stroke-width="1.5"/>
<path d="M99.5001 100H98.7501V100.75H99.5001V100ZM99.5001 97.2282H100.25V96.6263L99.6624 96.496L99.5001 97.2282ZM104.5 100V100.75H105.25V100H104.5ZM104.5 97.2282L104.338 96.496L103.75 96.6263V97.2282H104.5ZM107.964 95.8352L108.495 95.3049L108.078 94.8884L107.575 95.1943L107.964 95.8352ZM110 97.8709L109.47 98.4012L110 98.9315L110.53 98.4012L110 97.8709ZM113.535 94.3353L114.066 94.8657L114.596 94.3353L114.066 93.805L113.535 94.3353ZM111.574 92.3739L110.95 91.9578L110.609 92.4694L111.044 92.9043L111.574 92.3739ZM113.228 88.4993V87.7493H112.626L112.496 88.3371L113.228 88.4993ZM116 88.4993V89.2493H116.75V88.4993H116ZM116 83.4993H116.75V82.7493H116V83.4993ZM113.227 83.4993L112.495 83.6617L112.625 84.2493H113.227V83.4993ZM111.641 79.7294L111.111 79.1991L110.681 79.6293L111.013 80.139L111.641 79.7294ZM113.334 78.0364L113.865 78.5667L114.395 78.0364L113.865 77.506L113.334 78.0364ZM109.799 74.5008L110.329 73.9705L109.799 73.4402L109.268 73.9705L109.799 74.5008ZM108.069 76.2306L107.673 76.8673L108.178 77.1821L108.599 76.761L108.069 76.2306ZM104.5 74.7732H103.75V75.3752L104.338 75.5054L104.5 74.7732ZM104.5 72H105.25V71.25H104.5V72ZM99.5001 72V71.25H98.7501V72H99.5001ZM99.5001 74.7732L99.6624 75.5054L100.25 75.3752V74.7732H99.5001ZM95.6269 76.4268L95.0965 76.9571L95.5314 77.392L96.043 77.0507L95.6269 76.4268ZM93.7364 74.5363L94.2668 74.006L93.7364 73.4757L93.2061 74.006L93.7364 74.5363ZM90.2009 78.0719L89.6706 77.5416L89.1402 78.0719L89.6706 78.6022L90.2009 78.0719ZM92.1656 80.0366L92.8065 80.4261L93.1124 79.9227L92.6959 79.5062L92.1656 80.0366ZM90.7729 83.4993V84.2493H91.3748L91.5051 83.6617L90.7729 83.4993ZM88 83.4993V82.7493H87.25V83.4993H88ZM88 88.4993H87.25V89.2493H88V88.4993ZM90.7723 88.4993L91.5045 88.3371L91.3743 87.7493H90.7723V88.4993ZM92.23 92.0696L92.7603 92.5999L93.1814 92.1788L92.8667 91.6733L92.23 92.0696ZM89.9998 94.2998L89.4695 93.7695L88.9391 94.2998L89.4695 94.8301L89.9998 94.2998ZM93.5353 97.8353L93.005 98.3657L93.5353 98.896L94.0657 98.3657L93.5353 97.8353ZM95.7288 95.6419L96.1383 95.0136L95.6287 94.6813L95.1985 95.1115L95.7288 95.6419ZM100.25 100V97.2282H98.7501V100H100.25ZM104.5 99.25H99.5001V100.75H104.5V99.25ZM103.75 97.2282V100H105.25V97.2282H103.75ZM107.575 95.1943C106.588 95.7938 105.498 96.2387 104.338 96.496L104.662 97.9604C105.986 97.6669 107.23 97.1593 108.354 96.4761L107.575 95.1943ZM110.53 97.3405L108.495 95.3049L107.434 96.3656L109.47 98.4012L110.53 97.3405ZM113.005 93.805L109.47 97.3405L110.53 98.4012L114.066 94.8657L113.005 93.805ZM111.044 92.9043L113.005 94.8657L114.066 93.805L112.104 91.8436L111.044 92.9043ZM112.496 88.3371C112.205 89.6501 111.674 90.8731 110.95 91.9578L112.198 92.7901C113.022 91.5543 113.628 90.1596 113.96 88.6615L112.496 88.3371ZM116 87.7493H113.228V89.2493H116V87.7493ZM115.25 83.4993V88.4993H116.75V83.4993H115.25ZM113.227 84.2493H116V82.7493H113.227V84.2493ZM111.013 80.139C111.704 81.199 112.213 82.388 112.495 83.6617L113.959 83.3369C113.637 81.8837 113.057 80.5278 112.27 79.3199L111.013 80.139ZM112.804 77.506L111.111 79.1991L112.172 80.2598L113.865 78.5667L112.804 77.506ZM109.268 75.0311L112.804 78.5667L113.865 77.506L110.329 73.9705L109.268 75.0311ZM108.599 76.761L110.329 75.0311L109.268 73.9705L107.539 75.7003L108.599 76.761ZM104.338 75.5054C105.537 75.7712 106.661 76.2374 107.673 76.8673L108.465 75.5939C107.312 74.876 106.03 74.3442 104.662 74.041L104.338 75.5054ZM103.75 72V74.7732H105.25V72H103.75ZM99.5001 72.75H104.5V71.25H99.5001V72.75ZM100.25 74.7732V72H98.7501V74.7732H100.25ZM96.043 77.0507C97.1273 76.3275 98.3499 75.7964 99.6624 75.5054L99.3378 74.041C97.8403 74.373 96.4461 74.9788 95.2107 75.8028L96.043 77.0507ZM93.2061 75.0667L95.0965 76.9571L96.1572 75.8964L94.2668 74.006L93.2061 75.0667ZM90.7312 78.6022L94.2668 75.0667L93.2061 74.006L89.6706 77.5416L90.7312 78.6022ZM92.6959 79.5062L90.7312 77.5416L89.6706 78.6022L91.6353 80.5669L92.6959 79.5062ZM91.5051 83.6617C91.7624 82.5017 92.2073 81.4121 92.8065 80.4261L91.5247 79.647C90.8417 80.7708 90.3343 82.0135 90.0407 83.3369L91.5051 83.6617ZM88 84.2493H90.7729V82.7493H88V84.2493ZM88.75 88.4993V83.4993H87.25V88.4993H88.75ZM90.7723 87.7493H88V89.2493H90.7723V87.7493ZM92.8667 91.6733C92.2365 90.6609 91.7703 89.5366 91.5045 88.3371L90.04 88.6615C90.3432 90.03 90.8751 91.3123 91.5933 92.466L92.8667 91.6733ZM90.5301 94.8301L92.7603 92.5999L91.6997 91.5393L89.4695 93.7695L90.5301 94.8301ZM94.0657 97.305L90.5301 93.7695L89.4695 94.8301L93.005 98.3657L94.0657 97.305ZM95.1985 95.1115L93.005 97.305L94.0657 98.3657L96.2591 96.1722L95.1985 95.1115ZM99.6624 96.496C98.3882 96.2135 97.1988 95.7047 96.1383 95.0136L95.3193 96.2702C96.5276 97.0577 97.884 97.6382 99.3378 97.9604L99.6624 96.496Z" fill="#FF842D"/>
<circle cx="78" cy="102" r="5.75" stroke="#FF842D" stroke-width="1.5"/>
<path d="M76.0357 113H75.2857V113.75H76.0357V113ZM76.0357 110.821H76.7857V110.219L76.198 110.089L76.0357 110.821ZM79.9643 113V113.75H80.7143V113H79.9643ZM79.9643 110.821L79.8019 110.089L79.2143 110.219V110.821H79.9643ZM82.6861 109.727L83.2165 109.196L82.8 108.78L82.2966 109.086L82.6861 109.727ZM84.2856 111.326L83.7552 111.857L84.2856 112.387L84.8159 111.857L84.2856 111.326ZM87.0635 108.548L87.5938 109.079L88.1242 108.548L87.5938 108.018L87.0635 108.548ZM85.5224 107.007L84.8984 106.591L84.5572 107.103L84.9921 107.538L85.5224 107.007ZM86.8215 103.965V103.215H86.2195L86.0892 103.802L86.8215 103.965ZM89 103.965V104.715H89.75V103.965H89ZM89 100.036H89.75V99.286H89V100.036ZM86.8217 100.036L86.0895 100.198L86.2197 100.786H86.8217V100.036ZM85.5751 97.0722L85.0448 96.5419L84.6146 96.9721L84.9468 97.4818L85.5751 97.0722ZM86.9054 95.742L87.4357 96.2723L87.966 95.742L87.4357 95.2117L86.9054 95.742ZM84.1275 92.9641L84.6578 92.4337L84.1275 91.9034L83.5971 92.4337L84.1275 92.9641ZM82.7683 94.3232L82.372 94.9599L82.8775 95.2746L83.2986 94.8535L82.7683 94.3232ZM79.9643 93.1781H79.2143V93.7801L79.8019 93.9104L79.9643 93.1781ZM79.9643 91H80.7143V90.25H79.9643V91ZM76.0357 91V90.25H75.2857V91H76.0357ZM76.0357 93.1781L76.198 93.9104L76.7857 93.7801V93.1781H76.0357ZM72.9925 94.4773L72.4622 95.0077L72.897 95.4425L73.4087 95.1013L72.9925 94.4773ZM71.5071 92.992L72.0375 92.4617L71.5071 91.9313L70.9768 92.4617L71.5071 92.992ZM68.7292 95.7699L68.1989 95.2396L67.6686 95.7699L68.1989 96.3002L68.7292 95.7699ZM70.2729 97.3136L70.9138 97.7031L71.2197 97.1997L70.8032 96.7832L70.2729 97.3136ZM69.1783 100.036V100.786H69.7802L69.9105 100.198L69.1783 100.036ZM67 100.036V99.286H66.25V100.036H67ZM67 103.965H66.25V104.715H67V103.965ZM69.1785 103.965L69.9107 103.802L69.7804 103.215H69.1785V103.965ZM70.3234 106.768L70.8538 107.298L71.2749 106.877L70.9602 106.372L70.3234 106.768ZM68.5711 108.52L68.0408 107.99L67.5104 108.52L68.0408 109.051L68.5711 108.52ZM71.349 111.298L70.8187 111.829L71.349 112.359L71.8793 111.829L71.349 111.298ZM73.0725 109.575L73.482 108.947L72.9723 108.614L72.5421 109.045L73.0725 109.575ZM76.7857 113V110.821H75.2857V113H76.7857ZM79.9643 112.25H76.0357V113.75H79.9643V112.25ZM79.2143 110.821V113H80.7143V110.821H79.2143ZM82.2966 109.086C81.5364 109.548 80.6963 109.891 79.8019 110.089L80.1266 111.554C81.1844 111.319 82.1776 110.914 83.0757 110.368L82.2966 109.086ZM84.8159 110.796L83.2165 109.196L82.1558 110.257L83.7552 111.857L84.8159 110.796ZM86.5332 108.018L83.7552 110.796L84.8159 111.857L87.5938 109.079L86.5332 108.018ZM84.9921 107.538L86.5332 109.079L87.5938 108.018L86.0527 106.477L84.9921 107.538ZM86.0892 103.802C85.865 104.813 85.4558 105.755 84.8984 106.591L86.1463 107.423C86.8044 106.437 87.2884 105.323 87.5537 104.127L86.0892 103.802ZM89 103.215H86.8215V104.715H89V103.215ZM88.25 100.036V103.965H89.75V100.036H88.25ZM86.8217 100.786H89V99.286H86.8217V100.786ZM84.9468 97.4818C85.4797 98.2993 85.8718 99.2161 86.0895 100.198L87.5539 99.8737C87.2965 98.712 86.8327 97.6281 86.2034 96.6627L84.9468 97.4818ZM86.375 95.2117L85.0448 96.5419L86.1054 97.6026L87.4357 96.2723L86.375 95.2117ZM83.5971 93.4944L86.375 96.2723L87.4357 95.2117L84.6578 92.4337L83.5971 93.4944ZM83.2986 94.8535L84.6578 93.4944L83.5971 92.4337L82.238 93.7929L83.2986 94.8535ZM79.8019 93.9104C80.7259 94.1152 81.592 94.4744 82.372 94.9599L83.1647 93.6865C82.2434 93.113 81.2194 92.6882 80.1266 92.4459L79.8019 93.9104ZM79.2143 91V93.1781H80.7143V91H79.2143ZM76.0357 91.75H79.9643V90.25H76.0357V91.75ZM76.7857 93.1781V91H75.2857V93.1781H76.7857ZM73.4087 95.1013C74.2444 94.5438 75.1866 94.1346 76.198 93.9104L75.8734 92.4459C74.677 92.7111 73.5632 93.1952 72.5763 93.8534L73.4087 95.1013ZM70.9768 93.5223L72.4622 95.0077L73.5228 93.947L72.0375 92.4617L70.9768 93.5223ZM69.2596 96.3002L72.0375 93.5223L70.9768 92.4617L68.1989 95.2396L69.2596 96.3002ZM70.8032 96.7832L69.2596 95.2396L68.1989 96.3002L69.7426 97.8439L70.8032 96.7832ZM69.9105 100.198C70.1087 99.3037 70.4517 98.4635 70.9138 97.7031L69.632 96.924C69.0861 97.8222 68.6805 98.8157 68.446 99.8737L69.9105 100.198ZM67 100.786H69.1783V99.286H67V100.786ZM67.75 103.965V100.036H66.25V103.965H67.75ZM69.1785 103.215H67V104.715H69.1785V103.215ZM70.9602 106.372C70.4747 105.592 70.1155 104.726 69.9107 103.802L68.4463 104.127C68.6885 105.22 69.1134 106.243 69.6867 107.164L70.9602 106.372ZM69.1014 109.051L70.8538 107.298L69.7931 106.238L68.0408 107.99L69.1014 109.051ZM71.8793 110.768L69.1014 107.99L68.0408 109.051L70.8187 111.829L71.8793 110.768ZM72.5421 109.045L70.8187 110.768L71.8793 111.829L73.6028 110.105L72.5421 109.045ZM76.198 110.089C75.216 109.871 74.2994 109.479 73.482 108.947L72.6629 110.203C73.6282 110.832 74.7118 111.296 75.8734 111.554L76.198 110.089Z" fill="#FF842D"/>
<circle cx="161.5" cy="110.5" r="3.75" stroke="#818181" stroke-opacity="0.7" stroke-width="1.5"/>
<circle cx="35.5" cy="129.9" r="3.75" stroke="#818181" stroke-opacity="0.7" stroke-width="1.5"/>
<rect x="0.75" y="76.75" width="7.5" height="7.5" stroke="#818181" stroke-opacity="0.7" stroke-width="1.5"/>
<rect x="151.75" y="38.75" width="7.5" height="7.5" stroke="#818181" stroke-opacity="0.4" stroke-width="1.5"/>
<path d="M22.1029 27.25L26 20.5L29.8971 27.25H22.1029Z" stroke="#818181" stroke-opacity="0.7" stroke-width="1.5"/>
<path d="M117.103 153.25L121 146.5L124.897 153.25H117.103Z" stroke="#818181" stroke-opacity="0.4" stroke-width="1.5"/>
<g opacity="0.2">
<path d="M33.4965 53.4395L40.3734 56.4325" stroke="#FF842D" stroke-width="1.5" stroke-linecap="round"/>
<path d="M38.4315 51.4961L35.4385 58.373" stroke="#FF842D" stroke-width="1.5" stroke-linecap="round"/>
</g>
<g opacity="0.4">
<path d="M107.248 6.875L110.998 13.3702" stroke="#FF842D" stroke-width="1.5" stroke-linecap="round"/>
<path d="M112.37 8.24805L105.875 11.998" stroke="#FF842D" stroke-width="1.5" stroke-linecap="round"/>
</g>
<g opacity="0.7">
<path d="M68.4965 131.439L75.3734 134.432" stroke="#FF842D" stroke-width="1.5" stroke-linecap="round"/>
<path d="M73.4315 129.496L70.4385 136.373" stroke="#FF842D" stroke-width="1.5" stroke-linecap="round"/>
</g>
</svg>
