<svg width="180" height="163" viewBox="0 0 180 163" fill="none" xmlns="http://www.w3.org/2000/svg">
<circle cx="92" cy="80" r="80" fill="#818181" fill-opacity="0.05"/>
<circle cx="92" cy="78.6133" r="65" fill="#818181" fill-opacity="0.1"/>
<g opacity="0.2">
<path d="M20.4965 62.0527L27.3734 65.0458" stroke="#FF842D" stroke-width="1.5" stroke-linecap="round"/>
<path d="M25.4315 60.1094L22.4384 66.9863" stroke="#FF842D" stroke-width="1.5" stroke-linecap="round"/>
</g>
<g opacity="0.4">
<path d="M114.248 7.48828L117.998 13.9835" stroke="#FF842D" stroke-width="1.5" stroke-linecap="round"/>
<path d="M119.37 8.86133L112.875 12.6113" stroke="#FF842D" stroke-width="1.5" stroke-linecap="round"/>
</g>
<g opacity="0.7">
<path d="M141.497 107.053L148.373 110.046" stroke="#FF842D" stroke-width="1.5" stroke-linecap="round"/>
<path d="M146.431 105.109L143.438 111.986" stroke="#FF842D" stroke-width="1.5" stroke-linecap="round"/>
</g>
<circle cx="159.5" cy="31.1133" r="3.75" stroke="#818181" stroke-opacity="0.7" stroke-width="1.5"/>
<circle cx="48.5" cy="130.113" r="3.75" stroke="#818181" stroke-opacity="0.7" stroke-width="1.5"/>
<rect x="53.75" y="2.36328" width="7.5" height="7.5" stroke="#818181" stroke-opacity="0.7" stroke-width="1.5"/>
<rect x="171.75" y="63.75" width="7.5" height="7.5" stroke="#818181" stroke-opacity="0.4" stroke-width="1.5"/>
<path d="M2.10289 88.8633L6 82.1133L9.89711 88.8633H2.10289Z" stroke="#818181" stroke-opacity="0.7" stroke-width="1.5"/>
<path d="M116.103 158.863L120 152.113L123.897 158.863H116.103Z" stroke="#818181" stroke-opacity="0.4" stroke-width="1.5"/>
<path d="M132.548 56.1128C137.783 65.7904 139.376 77.0239 137.038 87.7754C134.7 98.5269 128.585 108.084 119.804 114.713C111.022 121.343 100.155 124.605 89.1745 123.908C78.1938 123.211 67.8266 118.601 59.9538 110.914" stroke="#FF842D" stroke-width="1.5" stroke-linecap="round"/>
<path d="M46.264 82.0125C45.6398 74.8843 46.6872 67.7087 49.3229 61.0562C51.9586 54.4038 56.1099 48.458 61.4467 43.6915C66.7836 38.925 73.1589 35.4692 80.0657 33.599C86.9725 31.7288 94.2204 31.4956 101.233 32.9181" stroke="#FF842D" stroke-width="1.5" stroke-linecap="round"/>
<circle cx="119" cy="42" r="15.25" stroke="#FF842D" stroke-width="1.5"/>
<path d="M79.6163 78.4484L81.6237 77.8278L85.6385 76.5865L98.7984 72.5179C100.394 72.0245 102.086 72.9296 102.561 74.531L106.946 89.3189C107.414 90.8944 106.526 92.5526 104.956 93.038L46.452 111.126C44.8561 111.619 43.1646 110.714 42.6897 109.113L38.3039 94.3248C37.8367 92.7493 38.7239 91.091 40.294 90.6056L41.4755 90.2403L43.4829 89.6197L44.4866 89.3094L46.0001 89" stroke="#FF842D" stroke-width="1.5"/>
<path d="M103.264 76.9774L103.638 76.8606L104.012 76.7438L104.759 76.5102L107.83 75.55C109.428 75.0505 111.125 75.9554 111.601 77.5603L112.786 81.5534C113.252 83.1254 112.37 84.7805 110.805 85.2697L107.649 86.2562L106.902 86.4898L106.155 86.7234" stroke="#FF842D" stroke-width="1.5"/>
<path d="M111.43 77.6417L111.615 77.5838L111.801 77.5259L112.171 77.4102L113.363 77.038C114.359 76.7267 115.426 77.2444 115.798 78.2201V78.2201C116.204 79.2846 115.629 80.4712 114.541 80.8109L113.583 81.1103L113.212 81.2261L112.842 81.3418" stroke="#FF842D" stroke-width="1.5"/>
<path d="M74.4028 85.3707L85.0566 82.0851L86.723 81.5693L90.4886 80.4036C92.0846 79.9095 93.7768 80.8145 94.2519 82.4164L95.1536 85.4569C95.6208 87.032 94.7341 88.6899 93.1646 89.1757L71.5243 95.8748C70.3188 96.248 69.0407 95.5644 68.6819 94.3546V94.3546L68.3559 93.2554L68.2744 92.9806" stroke="#FF842D" stroke-width="1.5"/>
<path d="M46.3064 104.509C41.7988 101.151 40.9621 94.7305 44.4585 90.3297L77.8265 48.3309C78.5826 47.3793 79.9577 47.2001 80.9323 47.9261L93.3 57.139C94.3186 57.8977 94.5076 59.3486 93.7176 60.343L60.0509 102.718C56.7051 106.929 50.6197 107.722 46.3064 104.509Z" stroke="#FF842D" stroke-width="1.5"/>
<circle cx="51" cy="97" r="5.25" stroke="#FF842D" stroke-width="1.5"/>
<path d="M84.1292 59.4902L81.6843 57.6958L80.6077 59.1627" stroke="#FF842D" stroke-width="1.5"/>
<path d="M85.7713 56.6245L87.2382 57.7012L85.4438 60.146" stroke="#FF842D" stroke-width="1.5"/>
<path d="M81.1059 62.982L82.5728 64.0586L84.3672 61.6138" stroke="#FF842D" stroke-width="1.5"/>
<path d="M78.498 61.0669L77.0311 59.9902L78.8255 57.5454" stroke="#FF842D" stroke-width="1.5"/>
<path d="M83.1634 54.7114L81.6965 53.6348L79.9021 56.0796" stroke="#FF842D" stroke-width="1.5"/>
<path d="M115 78.3402C118.216 76.6818 125.795 74.6194 130.111 77.2723C135.027 80.2937 138.451 89.718 127.926 91.8432C122.647 92.9093 119.916 84.3804 125.742 82.7812C128.655 81.8928 135.482 81.1789 137.94 87.2234C139.988 91.9351 144.084 95.5205 149 90.74" stroke="#FF842D" stroke-width="1.5"/>
<rect x="111.75" y="39.5488" width="10.9789" height="8.7391" rx="1.25" stroke="#FF842D" stroke-width="1.5"/>
<path d="M117.399 42.3184V45.5181" stroke="#FF842D" stroke-width="1.5"/>
<path d="M120.964 39.3613V37.6797C120.964 35.6474 122.611 34 124.643 34V34C126.676 34 128.323 35.6474 128.323 37.6797L128.323 39.3613" stroke="#FF842D" stroke-width="1.5"/>
</svg>
