<svg width="16" height="16" viewBox="0 0 16 16" fill="none" xmlns="http://www.w3.org/2000/svg">
  <circle cx="8" cy="8.25" r="7.5" fill="#43D29F"/>
  <path d="M11.0469 7.55078C11.1445 7.45312 11.1445 7.29688 11.0469 7.21875L10.6562 6.82812C10.5781 6.73047 10.4219 6.73047 10.3242 6.82812L8.48828 8.72266V3.85938C8.48828 3.74219 8.39062 3.625 8.25391 3.625H7.70703C7.58984 3.625 7.47266 3.74219 7.47266 3.85938V8.72266L5.65625 6.82812C5.55859 6.73047 5.40234 6.73047 5.32422 6.82812L4.93359 7.21875C4.83594 7.29688 4.83594 7.45312 4.93359 7.55078L7.82422 10.4414C7.92188 10.5391 8.05859 10.5391 8.15625 10.4414L11.0469 7.55078ZM11.5156 11.3594H4.48438C4.34766 11.3594 4.25 11.4766 4.25 11.5938V12.1406C4.25 12.2773 4.34766 12.375 4.48438 12.375H11.5156C11.6328 12.375 11.75 12.2773 11.75 12.1406V11.5938C11.75 11.4766 11.6328 11.3594 11.5156 11.3594Z" fill="black"/>
</svg>
