<svg width="166" height="165" viewBox="0 0 166 165" fill="none" xmlns="http://www.w3.org/2000/svg">
  <circle cx="83.5" cy="83" r="80" fill="#818181" fill-opacity="0.05"/>
  <circle cx="83.5" cy="83" r="65" fill="#818181" fill-opacity="0.1"/>
  <path opacity="0.2" d="M7.04949 94.0055C6.66969 93.8402 6.2278 94.0141 6.0625 94.3939C5.8972 94.7737 6.07109 95.2156 6.45089 95.3809L9.20115 96.5779L8.0043 99.3278C7.839 99.7076 8.01289 100.149 8.39269 100.315C8.77249 100.48 9.21438 100.306 9.37968 99.9264L10.5765 97.1765L13.3278 98.3739C13.7076 98.5392 14.1495 98.3653 14.3148 97.9855C14.4801 97.6057 14.3062 97.1638 13.9264 96.9985L11.1751 95.8011L12.3727 93.0495C12.538 92.6697 12.3641 92.2278 11.9843 92.0625C11.6045 91.8972 11.1626 92.0711 10.9973 92.4509L9.79976 95.2025L7.04949 94.0055Z" fill="#FF842D"/>
  <path opacity="0.4" d="M104.397 9.11341C104.19 8.75469 103.731 8.63178 103.372 8.83889C103.014 9.04599 102.891 9.50469 103.098 9.86341L104.598 12.4618L102 13.9619C101.641 14.169 101.518 14.6277 101.725 14.9865C101.932 15.3452 102.391 15.4681 102.75 15.261L105.348 13.7609L106.848 16.3586C107.055 16.7173 107.514 16.8402 107.872 16.6331C108.231 16.426 108.354 15.9673 108.147 15.6086L106.647 13.0109L109.245 11.511C109.604 11.3039 109.727 10.8452 109.52 10.4865C109.312 10.1277 108.854 10.0048 108.495 10.2119L105.897 11.7118L104.397 9.11341Z" fill="#FF842D"/>
  <path opacity="0.7" d="M120.049 124.005C119.67 123.84 119.228 124.014 119.063 124.394C118.897 124.774 119.071 125.216 119.451 125.381L122.201 126.578L121.004 129.328C120.839 129.708 121.013 130.149 121.393 130.315C121.772 130.48 122.214 130.306 122.38 129.926L123.577 127.176L126.328 128.374C126.708 128.539 127.149 128.365 127.315 127.986C127.48 127.606 127.306 127.164 126.926 126.999L124.175 125.801L125.373 123.049C125.538 122.67 125.364 122.228 124.984 122.063C124.605 121.897 124.163 122.071 123.997 122.451L122.8 125.202L120.049 124.005Z" fill="#FF842D"/>
  <path fill-rule="evenodd" clip-rule="evenodd" d="M149 36.1133C150.657 36.1133 152 34.7701 152 33.1133C152 31.4564 150.657 30.1133 149 30.1133C147.343 30.1133 146 31.4564 146 33.1133C146 34.7701 147.343 36.1133 149 36.1133ZM149 37.6133C151.485 37.6133 153.5 35.5986 153.5 33.1133C153.5 30.628 151.485 28.6133 149 28.6133C146.515 28.6133 144.5 30.628 144.5 33.1133C144.5 35.5986 146.515 37.6133 149 37.6133Z" fill="#818181" fill-opacity="0.7"/>
  <path fill-rule="evenodd" clip-rule="evenodd" d="M38 135.113C39.6569 135.113 41 133.77 41 132.113C41 130.456 39.6569 129.113 38 129.113C36.3431 129.113 35 130.456 35 132.113C35 133.77 36.3431 135.113 38 135.113ZM38 136.613C40.4853 136.613 42.5 134.599 42.5 132.113C42.5 129.628 40.4853 127.613 38 127.613C35.5147 127.613 33.5 129.628 33.5 132.113C33.5 134.599 35.5147 136.613 38 136.613Z" fill="#818181" fill-opacity="0.7"/>
  <path fill-rule="evenodd" clip-rule="evenodd" d="M50 5.11328H44V11.1133H50V5.11328ZM42.5 3.61328V12.6133H51.5V3.61328H42.5Z" fill="#818181" fill-opacity="0.7"/>
  <path fill-rule="evenodd" clip-rule="evenodd" d="M153.5 125.5H147.5V131.5H153.5V125.5ZM146 124V133H155V124H146Z" fill="#818181" fill-opacity="0.4"/>
  <path fill-rule="evenodd" clip-rule="evenodd" d="M11.1962 41L6 50H16.3923L11.1962 41ZM11.1962 44L8.59808 48.5H13.7942L11.1962 44Z" fill="#818181" fill-opacity="0.4"/>
  <path fill-rule="evenodd" clip-rule="evenodd" d="M109.5 152.613L104.304 161.613H114.696L109.5 152.613ZM109.5 155.613L106.902 160.113H112.098L109.5 155.613Z" fill="#818181" fill-opacity="0.4"/>
  <path d="M107.52 47.3184V50.5181H109.02V47.3184H107.52Z" fill="#FF842D"/>
  <path fill-rule="evenodd" clip-rule="evenodd" d="M119.944 42.6797C119.944 40.2332 117.961 38.25 115.514 38.25C113.068 38.25 111.084 40.2332 111.084 42.6797V43.7988H103.871C102.766 43.7988 101.871 44.6943 101.871 45.7988V52.0379C101.871 53.1425 102.766 54.0379 103.871 54.0379H112.35C113.454 54.0379 114.35 53.1425 114.35 52.0379V45.7988C114.35 44.7737 113.578 43.9287 112.584 43.8125V42.6797C112.584 41.0617 113.896 39.75 115.514 39.75C117.132 39.75 118.444 41.0617 118.444 42.6797V44.3613H119.944V42.6797ZM103.871 45.2988H112.35C112.626 45.2988 112.85 45.5227 112.85 45.7988V52.0379C112.85 52.3141 112.626 52.5379 112.35 52.5379H103.871C103.595 52.5379 103.371 52.3141 103.371 52.0379V45.7988C103.371 45.5227 103.595 45.2988 103.871 45.2988Z" fill="#FF842D"/>
  <path fill-rule="evenodd" clip-rule="evenodd" d="M109.871 63C118.707 63 125.871 55.8366 125.871 47C125.871 38.1634 118.707 31 109.871 31C101.034 31 93.8708 38.1634 93.8708 47C93.8708 55.8366 101.034 63 109.871 63ZM109.871 61.5C117.879 61.5 124.371 55.0081 124.371 47C124.371 38.9919 117.879 32.5 109.871 32.5C101.863 32.5 95.3708 38.9919 95.3708 47C95.3708 55.0081 101.863 61.5 109.871 61.5Z" fill="#FF842D"/>
  <path d="M71.1325 39.3229C77.9267 37.4832 85.0564 37.2538 91.9548 38.6531C92.3607 38.7355 92.7566 38.4731 92.8389 38.0672C92.9213 37.6612 92.6589 37.2654 92.253 37.1831C85.1259 35.7374 77.7599 35.9743 70.7405 37.8751C63.721 39.7758 57.2418 43.2879 51.8179 48.1321C46.3941 52.9763 42.1751 59.0191 39.4964 65.78C36.8178 72.5409 35.7533 79.8335 36.3876 87.078C36.4238 87.4906 36.7876 87.7958 37.2002 87.7597C37.6128 87.7235 37.918 87.3597 37.8819 86.9471C37.2679 79.9351 38.2982 72.8765 40.891 66.3325C43.4837 59.7885 47.5673 53.9397 52.8171 49.2509C58.067 44.5621 64.3383 41.1627 71.1325 39.3229Z" fill="#FF842D"/>
  <path fill-rule="evenodd" clip-rule="evenodd" d="M47.8708 101.999C47.8708 105.313 45.1845 107.999 41.8708 107.999C38.5571 107.999 35.8708 105.313 35.8708 101.999C35.8708 98.6855 38.5571 95.9992 41.8708 95.9992C45.1845 95.9992 47.8708 98.6855 47.8708 101.999ZM46.3708 101.999C46.3708 104.485 44.3561 106.499 41.8708 106.499C39.3855 106.499 37.3708 104.485 37.3708 101.999C37.3708 99.514 39.3855 97.4992 41.8708 97.4992C44.3561 97.4992 46.3708 99.514 46.3708 101.999Z" fill="#FF842D"/>
  <path d="M75.4436 63.884L74.556 65.0933L72.7158 63.7426L72.083 64.6049L70.8737 63.7174L72.3941 61.6458L75.4436 63.884Z" fill="#FF842D"/>
  <path d="M76.9193 65.5897L79.1574 62.5403L77.0859 61.0199L76.1984 62.2291L77.0606 62.862L75.71 64.7022L76.9193 65.5897Z" fill="#FF842D"/>
  <path d="M73.6045 70.1067L75.8426 67.0572L74.6334 66.1697L73.2827 68.0099L72.4205 67.377L71.5329 68.5863L73.6045 70.1067Z" fill="#FF842D"/>
  <path d="M69.0916 62.1021L66.8535 65.1516L68.925 66.672L69.8125 65.4627L68.9503 64.8299L70.3009 62.9897L69.0916 62.1021Z" fill="#FF842D"/>
  <path d="M72.4065 57.5871L70.1683 60.6366L71.3775 61.5241L72.7282 59.6839L73.5904 60.3168L74.478 59.1075L72.4065 57.5871Z" fill="#FF842D"/>
  <path fill-rule="evenodd" clip-rule="evenodd" d="M124.078 60.7566C123.881 60.3922 123.426 60.2567 123.062 60.4538C122.698 60.6509 122.562 61.106 122.759 61.4703C127.356 69.9686 129.099 79.6866 127.783 89.1982C127.258 88.6367 126.679 88.1788 126.066 87.8093C125.304 85.263 123.463 82.9163 121.375 81.6325C118.994 80.1693 115.807 80.0463 112.911 80.4457C110.654 80.7572 108.478 81.3995 106.828 82.077C106.133 81.3235 105.044 80.9992 104.01 81.3223L102.915 81.6644C102.09 80.094 100.235 79.2833 98.4771 79.833L94.6578 81.027L94.1505 79.3168C93.5569 77.315 91.4425 76.1837 89.4477 76.8004L72.209 82.13L85.1755 65.8097C86.229 64.4838 85.9769 62.5493 84.6188 61.5376L72.2511 52.3247C70.9516 51.3567 69.1181 51.5956 68.1101 52.8644L36.3146 92.8828C36.0281 93.2435 35.6229 93.4909 35.1711 93.581L30.9433 94.8881C28.9807 95.4949 27.8716 97.5677 28.4557 99.5371L32.8415 114.325C33.4352 116.327 35.5496 117.458 37.5444 116.841L96.0487 98.7536C98.0113 98.1468 99.1204 96.074 98.5363 94.1046L97.9748 92.2113L101.899 90.9843C103.675 90.4291 104.748 88.6728 104.494 86.8835L105.636 86.527C106.978 86.1078 107.755 84.7539 107.503 83.4219C109.019 82.8097 111.028 82.2198 113.116 81.9317C115.894 81.5485 118.654 81.7208 120.589 82.9104C122.029 83.7952 123.328 85.2813 124.124 86.9431C123.761 86.8293 123.394 86.7376 123.026 86.6657C120.497 86.1701 117.939 86.5934 116.404 87.06C114.758 87.5145 113.657 88.4823 113.077 89.698C112.505 90.8971 112.471 92.2705 112.818 93.5128C113.503 95.9665 115.806 98.2115 118.946 97.5776C121.685 97.0244 123.612 95.977 124.833 94.5895C126.034 93.2244 126.494 91.5964 126.434 89.9669C126.807 90.3243 127.151 90.7394 127.457 91.2197C127.371 91.6861 127.277 92.1518 127.176 92.6166C124.876 103.193 118.861 112.594 110.223 119.115C101.584 125.637 90.8946 128.845 80.0929 128.16C69.2912 127.474 59.0931 122.939 51.3486 115.378C51.0522 115.089 50.5774 115.095 50.288 115.391C49.9987 115.687 50.0043 116.162 50.3007 116.452C58.3019 124.263 68.8381 128.948 79.9979 129.657C91.1577 130.365 102.202 127.05 111.126 120.313C119.923 113.672 126.086 104.141 128.537 93.4056C129.585 95.4848 131.073 97.3413 132.947 98.2196C134.036 98.7298 135.246 98.9033 136.53 98.5989C137.803 98.297 139.096 97.5385 140.394 96.2769L139.348 95.2015C138.187 96.3302 137.125 96.9162 136.184 97.1393C135.253 97.3599 134.389 97.2389 133.584 96.8614C131.933 96.088 130.496 94.2153 129.502 91.9316C129.358 91.5794 129.201 91.2482 129.031 90.9368C130.807 80.6258 129.075 69.9937 124.078 60.7566ZM69.2845 53.7975L36.9678 94.4731L36.7101 94.7974L35.9165 95.7963C32.6834 99.8656 33.4571 105.803 37.6252 108.908C41.6136 111.879 47.2406 111.145 50.3344 107.251L84.0011 64.8766C84.5278 64.2136 84.4018 63.2464 83.7227 62.7406L71.355 53.5277C70.7053 53.0436 69.7885 53.1631 69.2845 53.7975ZM105.772 83.1482C105.463 82.7706 104.947 82.6012 104.457 82.7541L103.409 83.0813L104.107 85.433L105.188 85.0952C105.825 84.8964 106.179 84.2301 106.006 83.6008L105.772 83.1482ZM31.3864 96.3212L34.3352 95.4095C31.056 100.113 32.0655 106.637 36.7291 110.111C41.3673 113.566 47.911 112.713 51.5089 108.184L58.7035 99.1289L58.8336 99.5677C59.3112 101.178 61.0123 102.088 62.6168 101.591L84.2572 94.8921C86.219 94.2848 87.3274 92.2125 86.7435 90.2435L85.8417 87.2031C85.2479 85.2008 83.1327 84.0694 81.1376 84.687L66.6145 89.1716L70.6763 84.0593L70.7086 84.164L89.8907 78.2335C91.0876 77.8634 92.3562 78.5422 92.7125 79.7433L97.0982 94.5311C97.4487 95.7128 96.7832 96.9565 95.6057 97.3205L37.1013 115.408C35.9044 115.778 34.6358 115.099 34.2796 113.898L29.8938 99.1106C29.5434 97.9289 30.2088 96.6852 31.3864 96.3212ZM59.8642 97.7673L59.7609 97.7979L65.3821 90.7227L65.4946 91.0873L81.5811 86.12C82.7782 85.7494 84.0473 86.4282 84.4036 87.6296L85.3054 90.6701C85.6558 91.8514 84.9907 93.0948 83.8136 93.4592L62.1733 100.158C61.3668 100.408 60.5118 99.9506 60.2717 99.1412L59.8642 97.7673ZM95.0843 82.4653L97.5482 90.773L101.452 89.5527C102.625 89.1857 103.287 87.9444 102.937 86.7654L101.753 82.7724C101.396 81.5686 100.123 80.89 98.9247 81.2646L95.0843 82.4653ZM122.738 88.1377C123.438 88.2749 124.127 88.4912 124.777 88.812C124.859 89.1857 124.912 89.5604 124.931 89.9317C125 91.2642 124.642 92.5358 123.707 93.5985C122.764 94.6702 121.172 95.5978 118.649 96.1073C116.508 96.5395 114.806 95.0531 114.262 93.1091C113.995 92.1525 114.041 91.1604 114.43 90.3439C114.811 89.5465 115.549 88.85 116.811 88.5037L116.821 88.5009L116.831 88.4978C118.21 88.0772 120.516 87.7023 122.738 88.1377Z" fill="#FF842D"/>
</svg>
