<svg width="166" height="165" viewBox="0 0 166 165" fill="none" xmlns="http://www.w3.org/2000/svg">
  <ellipse cx="84.988" cy="82.5" rx="79.5181" ry="82.5" fill="#818181" fill-opacity="0.05"/>
  <ellipse cx="84.988" cy="82.5" rx="64.6084" ry="67.0312" fill="#818181" fill-opacity="0.1"/>
  <path d="M164.75 114.984C164.75 117.159 163.057 118.875 161.027 118.875C158.997 118.875 157.304 117.159 157.304 114.984C157.304 112.809 158.997 111.094 161.027 111.094C163.057 111.094 164.75 112.809 164.75 114.984Z" stroke="#818181" stroke-opacity="0.7" stroke-width="1.5"/>
  <path d="M39.509 134.991C39.509 137.166 37.8165 138.882 35.7861 138.882C33.7558 138.882 32.0633 137.166 32.0633 134.991C32.0633 132.816 33.7558 131.101 35.7861 131.101C37.8165 131.101 39.509 132.816 39.509 134.991Z" stroke="#818181" stroke-opacity="0.7" stroke-width="1.5"/>
  <rect x="1.25" y="80.1562" width="7.44578" height="7.78126" stroke="#818181" stroke-opacity="0.7" stroke-width="1.5"/>
  <rect x="151.34" y="40.9688" width="7.44579" height="7.78125" stroke="#818181" stroke-opacity="0.4" stroke-width="1.5"/>
  <path d="M22.4542 29.1562L26.3434 22.1674L30.2326 29.1562H22.4542Z" stroke="#818181" stroke-opacity="0.7" stroke-width="1.5"/>
  <path d="M116.882 159.094L120.771 152.105L124.66 159.094H116.882Z" stroke="#818181" stroke-opacity="0.4" stroke-width="1.5"/>
  <g opacity="0.2">
    <path d="M33.7947 56.1396L40.6302 59.2262" stroke="#FF842D" stroke-width="1.5" stroke-linecap="round"/>
    <path d="M38.7 54.1367L35.725 61.2285" stroke="#FF842D" stroke-width="1.5" stroke-linecap="round"/>
  </g>
  <g opacity="0.4">
    <path d="M107.102 8.12109L110.829 14.8193" stroke="#FF842D" stroke-width="1.5" stroke-linecap="round"/>
    <path d="M112.193 9.53613L105.737 13.4033" stroke="#FF842D" stroke-width="1.5" stroke-linecap="round"/>
  </g>
  <g opacity="0.7">
    <path d="M68.5839 136.577L75.4193 139.664" stroke="#FF842D" stroke-width="1.5" stroke-linecap="round"/>
    <path d="M73.4891 134.574L70.5141 141.666" stroke="#FF842D" stroke-width="1.5" stroke-linecap="round"/>
  </g>
  <path d="M102.276 44.2974L103.855 44.144L107.014 43.8372L115 43.0615C117.566 42.8122 119.834 44.692 120.066 47.2601V47.2601L120.276 49.5851L120.381 50.7476M83.3267 46.138L81.7475 46.2914L75.0864 46.9385C71.7883 47.2588 69.356 50.194 69.6538 53.4943L70.793 66.1186M123.528 85.6226L123.633 86.7851L123.843 89.1101L124.682 98.4101L125.821 111.034C126.119 114.335 123.687 117.27 120.389 117.59L120.044 117.624L113.727 118.237L112.148 118.391M93.1989 120.231L91.6197 120.385L88.4615 120.691L80.4755 121.467C77.909 121.716 75.6406 119.837 75.4089 117.269V117.269L75.1991 114.944L75.0941 113.781L75.0417 113.2" stroke="#FF842D" stroke-width="1.5"/>
  <path d="M87.0744 82.4334L43.735 106.26C40.0853 108.266 35.5909 106.869 33.7235 103.147C31.8683 99.4496 33.3107 94.8585 36.9473 92.886L80.6474 69.1834C81.4208 68.7639 82.2541 68.4769 83.1139 68.3339L100.852 65.3834C101.978 65.1962 102.665 66.5799 101.864 67.4222L89.0473 80.9103C88.4691 81.5187 87.8035 82.0326 87.0744 82.4334Z" stroke="#FF842D" stroke-width="1.5"/>
  <path d="M45.9917 96.5194L84.2061 75.2537" stroke="#FF842D" stroke-width="1.5"/>
  <path d="M38.6963 91.4727L45.6444 105.169" stroke="#FF842D" stroke-width="1.5"/>
  <path d="M42.5177 89.3105L49.4657 103.007" stroke="#FF842D" stroke-width="1.5"/>
  <path d="M81.4268 68.7666L80.3817 70.664C79.5588 72.1581 80.5264 74.0076 82.2229 74.1836V74.1836C83.8646 74.3539 84.84 76.1012 84.1235 77.588L84.0111 77.8213C83.2519 79.3966 84.2574 81.2532 85.9916 81.4781L88.0274 81.7421" stroke="#FF842D" stroke-width="1.5"/>
  <path d="M66.7778 93.5764L66.5857 94.1251L66.2015 95.2226L64.6646 99.6123L63.5735 102.729C62.4785 105.856 64.1046 109.339 67.2054 110.508L103.68 124.253C106.781 125.422 110.182 123.834 111.277 120.706L131.902 61.7966C132.997 58.669 131.371 55.1863 128.27 54.0178L91.7953 40.2721C88.6945 39.1036 85.2931 40.6916 84.1981 43.8192L80.0333 55.7151L76.9596 64.4945L75.4227 68.8843" stroke="#FF842D" stroke-width="1.5"/>
  <path d="M95.3989 66.4495L100.849 65.7816C101.575 65.6927 102.028 66.5849 101.539 67.1393L97.5843 71.6203L95.3989 66.4495Z" fill="#FF842D"/>
  <path d="M116.972 83.7458L100.072 77.378L97.9594 76.582" stroke="#FF842D" stroke-width="1.5"/>
  <path d="M113.578 93.4383L96.6788 87.0705L92.4539 85.4786L90.3414 84.6826" stroke="#FF842D" stroke-width="1.5"/>
  <path d="M110.185 103.132L93.2857 96.7643L84.8358 93.5804L80.6109 91.9885L79.5547 91.5905L79.0265 91.3915L78.7625 91.292" stroke="#FF842D" stroke-width="1.5"/>
  <path d="M86.5653 61.3164L90.7902 62.9084L92.9026 63.7043M120.365 74.052L111.915 70.8681L107.69 69.2761L105.577 68.4802" stroke="#FF842D" stroke-width="1.5"/>
  <path d="M89.9583 51.624L123.758 64.3596" stroke="#FF842D" stroke-width="1.5"/>
  <path d="M72.9929 100.089L106.792 112.824" stroke="#FF842D" stroke-width="1.5"/>
</svg>
