<svg width="176" height="165" viewBox="0 0 176 165" fill="none" xmlns="http://www.w3.org/2000/svg">
  <circle cx="89.9349" cy="83" r="80" fill="#818181" fill-opacity="0.05"/>
  <circle cx="89.9349" cy="83" r="65" fill="#818181" fill-opacity="0.1"/>
  <g opacity="0.2">
    <path d="M42.4315 33.4385L49.3084 36.4315" stroke="#FF842D" stroke-width="1.5" stroke-linecap="round"/>
    <path d="M47.3664 31.4961L44.3734 38.373" stroke="#FF842D" stroke-width="1.5" stroke-linecap="round"/>
  </g>
  <g opacity="0.4">
    <path d="M107.183 17.875L110.933 24.3702" stroke="#FF842D" stroke-width="1.5" stroke-linecap="round"/>
    <path d="M112.305 19.248L105.81 22.998" stroke="#FF842D" stroke-width="1.5" stroke-linecap="round"/>
  </g>
  <g opacity="0.7">
    <path d="M166.997 70.4385L173.873 73.4315" stroke="#FF842D" stroke-width="1.5" stroke-linecap="round"/>
    <path d="M171.931 68.4961L168.938 75.373" stroke="#FF842D" stroke-width="1.5" stroke-linecap="round"/>
  </g>
  <circle cx="158" cy="41.5" r="3.75" stroke="#818181" stroke-opacity="0.7" stroke-width="1.5"/>
  <circle cx="164" cy="122.5" r="3.75" stroke="#818181" stroke-opacity="0.7" stroke-width="1.5"/>
  <rect x="61.6849" y="3.75" width="7.5" height="7.5" stroke="#818181" stroke-opacity="0.7" stroke-width="1.5"/>
  <rect x="34.6849" y="138.75" width="7.5" height="7.5" stroke="#818181" stroke-opacity="0.4" stroke-width="1.5"/>
  <path d="M2.60289 91.25L6.5 84.5L10.3971 91.25H2.60289Z" stroke="#818181" stroke-opacity="0.7" stroke-width="1.5"/>
  <path d="M101.038 157.25L104.935 150.5L108.832 157.25H101.038Z" stroke="#818181" stroke-opacity="0.4" stroke-width="1.5"/>
  <path d="M123.669 45V50.0435M131.504 47.882L127.46 51.7246M134.79 55.3271H129.735" stroke="#FF842D" stroke-width="1.5"/>
  <path d="M130.435 64V114H51.435V98" stroke="#FF842D" stroke-width="1.5"/>
  <rect x="78.435" y="118.879" width="25.4206" height="6.35514" stroke="#FF842D" stroke-width="1.5"/>
  <path d="M71.2042 125.25H109.666C112.183 125.25 114.267 127.103 114.629 129.519H66.2406C66.6027 127.103 68.687 125.25 71.2042 125.25Z" stroke="#FF842D" stroke-width="1.5"/>
  <path d="M46.435 98V114.785C46.435 116.994 48.2258 118.785 50.435 118.785H131.407C133.616 118.785 135.407 116.994 135.407 114.785V64C135.407 61.7909 133.616 60 131.407 60H129.935" stroke="#FF842D" stroke-width="1.5"/>
  <path d="M122.052 53.7387L46.935 53.7383C44.7258 53.7383 42.9349 55.5292 42.9349 57.7383V91.0746C42.9349 93.2838 44.7258 95.0746 46.9349 95.0746L102.517 95.075C104.163 97.7521 111.72 104.44 114.454 104.578C114.603 104.585 114.691 104.407 114.642 104.266C114.128 102.781 113.123 96.7161 113.794 95.075H122.052C124.261 95.075 126.052 93.2842 126.052 91.075V57.7387C126.052 55.5295 124.261 53.7387 122.052 53.7387Z" stroke="#FF842D" stroke-width="1.5" stroke-linecap="round"/>
  <path d="M96.8167 74.1494V82.237" stroke="#FF842D" stroke-width="1.5"/>
  <path d="M100.319 80.2139L93.3147 76.1701" stroke="#FF842D" stroke-width="1.5"/>
  <path d="M100.319 76.1709L93.3147 80.2147" stroke="#FF842D" stroke-width="1.5"/>
  <path d="M84.7369 74.1494V82.237" stroke="#FF842D" stroke-width="1.5"/>
  <path d="M88.239 80.2139L81.2349 76.1701" stroke="#FF842D" stroke-width="1.5"/>
  <path d="M88.239 76.1709L81.2349 80.2147" stroke="#FF842D" stroke-width="1.5"/>
  <path d="M109.071 74.1494V82.237" stroke="#FF842D" stroke-width="1.5"/>
  <path d="M112.573 80.2139L105.569 76.1701" stroke="#FF842D" stroke-width="1.5"/>
  <path d="M112.573 76.1709L105.569 80.2147" stroke="#FF842D" stroke-width="1.5"/>
  <rect x="76.1849" y="71.1006" width="41.5" height="14.19" rx="3.25" stroke="#FF842D" stroke-width="1.5"/>
  <rect x="50.0669" y="71.1025" width="17.6161" height="14.185" rx="3.25" stroke="#FF842D" stroke-width="1.5"/>
  <path d="M59.1201 75.7441V80.6457" stroke="#FF842D" stroke-width="1.5"/>
  <path d="M64.5118 71.2129V68.6368C64.5118 65.5237 61.9881 63 58.875 63V63C55.7618 63 53.2382 65.5237 53.2382 68.6368L53.2382 71.2129" stroke="#FF842D" stroke-width="1.5"/>
</svg>
