<svg width="189" height="163" viewBox="0 0 189 163" fill="none" xmlns="http://www.w3.org/2000/svg">
<circle cx="92.5" cy="80" r="80" fill="#818181" fill-opacity="0.05"/>
<circle cx="93" cy="80" r="65" fill="#818181" fill-opacity="0.1"/>
<path d="M133.751 58.6612C138.583 67.8882 140.14 78.4817 138.168 88.7088C136.196 98.9358 130.812 108.191 122.896 114.96C114.981 121.729 105.002 125.612 94.5926 125.972C84.1835 126.333 73.96 123.15 65.5948 116.945C57.2296 110.74 51.2178 101.88 48.5429 91.8137C45.868 81.7476 46.6884 71.0717 50.8698 61.5325C55.0513 51.9933 62.3462 44.1555 71.5613 39.3013C80.7764 34.4471 91.3661 32.8639 101.598 34.8107" stroke="#FF842D" stroke-width="1.5" stroke-linecap="round"/>
<circle cx="120" cy="44" r="15.25" stroke="#FF842D" stroke-width="1.5"/>
<path d="M120 37V51" stroke="#FF842D" stroke-width="1.5" stroke-linecap="round"/>
<path d="M127 44L113 44" stroke="#FF842D" stroke-width="1.5" stroke-linecap="round"/>
<g opacity="0.2">
<path d="M20.9966 62.0527L27.8735 65.0458" stroke="#FF842D" stroke-width="1.5" stroke-linecap="round"/>
<path d="M25.9316 60.1094L22.9386 66.9863" stroke="#FF842D" stroke-width="1.5" stroke-linecap="round"/>
</g>
<g opacity="0.4">
<path d="M114.748 7.48828L118.498 13.9835" stroke="#FF842D" stroke-width="1.5" stroke-linecap="round"/>
<path d="M119.87 8.86133L113.375 12.6113" stroke="#FF842D" stroke-width="1.5" stroke-linecap="round"/>
</g>
<g opacity="0.7">
<path d="M141.997 107.053L148.873 110.046" stroke="#FF842D" stroke-width="1.5" stroke-linecap="round"/>
<path d="M146.932 105.109L143.939 111.986" stroke="#FF842D" stroke-width="1.5" stroke-linecap="round"/>
</g>
<circle cx="160" cy="31.1133" r="3.75" stroke="#818181" stroke-opacity="0.7" stroke-width="1.5"/>
<circle cx="49" cy="130.113" r="3.75" stroke="#818181" stroke-opacity="0.7" stroke-width="1.5"/>
<rect x="54.25" y="2.36328" width="7.5" height="7.5" stroke="#818181" stroke-opacity="0.7" stroke-width="1.5"/>
<rect x="180.25" y="79.3633" width="7.5" height="7.5" stroke="#818181" stroke-opacity="0.4" stroke-width="1.5"/>
<path d="M2.16987 89.1133L6.5 81.6133L10.8301 89.1133H2.16987Z" stroke="#818181" stroke-opacity="0.7"/>
<path d="M116.603 158.863L120.5 152.113L124.397 158.863H116.603Z" stroke="#818181" stroke-opacity="0.4" stroke-width="1.5"/>
<path d="M71.3721 65H107.825" stroke="#FF842D" stroke-width="1.5" stroke-linecap="round"/>
<path d="M66.4707 72.3433L66.3718 78.2561V86.6689L66.2259 93.2736C66.1019 98.8816 70.6141 103.495 76.2234 103.495H109.949C114.595 103.495 118.362 99.728 118.362 95.0817V95.0817M114.246 66.7675V66.7675C114.315 63.0505 111.321 60 107.603 60H89.8718H71.2969C68.5769 60 66.3718 62.205 66.3718 64.9251V64.9251C66.3718 67.656 68.5938 69.8655 71.3246 69.8502L72.5452 69.8433H79.0904H92.1808H109.949C114.595 69.8433 118.362 73.6098 118.362 78.2561V78.2561V81.5" stroke="#FF842D" stroke-width="1.5" stroke-linecap="round"/>
<path fill-rule="evenodd" clip-rule="evenodd" d="M87.1711 89.6252C87.2087 89.5858 87.2546 89.5543 87.3057 89.5328C87.3568 89.5112 87.4121 89.5 87.4681 89.5L96.6321 89.5071C96.6711 89.5072 96.7093 89.5181 96.7419 89.5384C96.7746 89.5588 96.8004 89.5877 96.8161 89.6217C96.8318 89.6557 96.8368 89.6934 96.8305 89.73C96.8242 89.7667 96.8069 89.8009 96.7806 89.8283L94.8291 91.8748C94.7914 91.9142 94.7455 91.9457 94.6943 91.9673C94.6432 91.9889 94.5878 92 94.5318 92L85.3681 91.9929C85.3291 91.9928 85.2909 91.9819 85.2582 91.9616C85.2256 91.9412 85.1998 91.9123 85.1841 91.8783C85.1684 91.8443 85.1633 91.8066 85.1696 91.77C85.1759 91.7333 85.1933 91.6991 85.2196 91.6717L87.1711 89.6252ZM96.7806 87.9217C96.8069 87.9491 96.8242 87.9833 96.8305 88.02C96.8368 88.0566 96.8318 88.0943 96.8161 88.1283C96.8004 88.1623 96.7746 88.1912 96.7419 88.2116C96.7093 88.2319 96.6711 88.2428 96.6321 88.2429L87.4683 88.25C87.4124 88.25 87.357 88.2389 87.3058 88.2173C87.2546 88.1957 87.2087 88.1642 87.1711 88.1248L85.2196 86.0771C85.1933 86.0497 85.1759 86.0155 85.1696 85.9788C85.1633 85.9422 85.1684 85.9045 85.1841 85.8705C85.1998 85.8365 85.2256 85.8076 85.2582 85.7872C85.2909 85.7669 85.3291 85.756 85.3681 85.756L94.5321 85.7488C94.588 85.7488 94.6433 85.76 94.6945 85.7816C94.7456 85.8031 94.7915 85.8346 94.8291 85.874L96.7806 87.9217ZM87.1711 82.1252C87.2087 82.0858 87.2546 82.0543 87.3057 82.0328C87.3568 82.0112 87.4121 82 87.4681 82L96.6321 82.0071C96.6711 82.0072 96.7093 82.0181 96.7419 82.0384C96.7746 82.0588 96.8004 82.0877 96.8161 82.1217C96.8318 82.1557 96.8368 82.1934 96.8305 82.23C96.8242 82.2667 96.8069 82.3009 96.7806 82.3283L94.8291 84.3748C94.7914 84.4142 94.7455 84.4457 94.6943 84.4673C94.6432 84.4889 94.5878 84.5 94.5318 84.5L85.3681 84.4929C85.3291 84.4928 85.2909 84.4819 85.2582 84.4616C85.2256 84.4412 85.1998 84.4123 85.1841 84.3783C85.1684 84.3443 85.1633 84.3066 85.1696 84.27C85.1759 84.2333 85.1933 84.1991 85.2196 84.1717L87.1711 82.1252Z" fill="#FF842D"/>
<path d="M106.372 87C106.372 84.2386 108.61 82 111.372 82H121.372C122.476 82 123.372 82.8954 123.372 84V90C123.372 91.1046 122.476 92 121.372 92H111.372C108.61 92 106.372 89.7614 106.372 87V87Z" stroke="#FF842D" stroke-width="1.5"/>
<circle cx="111.807" cy="86.9942" r="1.99416" stroke="#FF842D" stroke-width="1.5"/>
</svg>
