<svg width="177" height="160" viewBox="0 0 177 160" fill="none" xmlns="http://www.w3.org/2000/svg">
<circle cx="87.75" cy="80" r="80" fill="#818181" fill-opacity="0.05"/>
<circle cx="88.75" cy="80" r="65" fill="#818181" fill-opacity="0.1"/>
<circle cx="156.25" cy="31.5" r="3.75" stroke="#818181" stroke-opacity="0.7" stroke-width="1.5"/>
<circle cx="45.25" cy="130.5" r="3.75" stroke="#818181" stroke-opacity="0.7" stroke-width="1.5"/>
<rect x="50.5" y="2.75" width="7.5" height="7.5" stroke="#818181" stroke-opacity="0.7" stroke-width="1.5"/>
<rect x="168" y="79.75" width="7.5" height="7.5" stroke="#818181" stroke-opacity="0.4" stroke-width="1.5"/>
<path d="M3.10289 98.25L7 91.5L10.8971 98.25H3.10289Z" stroke="#818181" stroke-opacity="0.7" stroke-width="1.5"/>
<path d="M118.853 156.25L122.75 149.5L126.647 156.25H118.853Z" stroke="#818181" stroke-opacity="0.4" stroke-width="1.5"/>
<g opacity="0.2">
<path d="M17.2466 62.4395L24.1235 65.4325" stroke="#FF842D" stroke-width="1.5" stroke-linecap="round"/>
<path d="M22.1816 60.4961L19.1886 67.373" stroke="#FF842D" stroke-width="1.5" stroke-linecap="round"/>
</g>
<g opacity="0.4">
<path d="M110.998 7.875L114.748 14.3702" stroke="#FF842D" stroke-width="1.5" stroke-linecap="round"/>
<path d="M116.12 9.24805L109.625 12.998" stroke="#FF842D" stroke-width="1.5" stroke-linecap="round"/>
</g>
<g opacity="0.7">
<path d="M138.247 107.439L145.123 110.432" stroke="#FF842D" stroke-width="1.5" stroke-linecap="round"/>
<path d="M143.182 105.496L140.189 112.373" stroke="#FF842D" stroke-width="1.5" stroke-linecap="round"/>
</g>
<path d="M130.416 60.7C130.223 60.3331 129.77 60.1914 129.403 60.3835C129.036 60.5757 128.895 61.0289 129.087 61.3959L130.416 60.7ZM98.0198 37.8175C98.3623 37.5845 98.451 37.118 98.2181 36.7755L94.4213 31.1946C94.1883 30.8521 93.7218 30.7633 93.3794 30.9963C93.0369 31.2293 92.9481 31.6958 93.1811 32.0383L96.556 36.9991L91.5951 40.374C91.2526 40.607 91.1639 41.0735 91.3969 41.416C91.6298 41.7585 92.0963 41.8472 92.4388 41.6142L98.0198 37.8175ZM129.087 61.3959C133.84 70.4724 135.371 80.8932 133.432 90.9535L134.905 91.2375C136.909 80.8437 135.326 70.0774 130.416 60.7L129.087 61.3959ZM133.432 90.9535C131.492 101.014 126.196 110.118 118.409 116.777L119.384 117.917C127.429 111.037 132.901 101.631 134.905 91.2375L133.432 90.9535ZM118.409 116.777C110.622 123.436 100.806 127.255 90.5667 127.61L90.6186 129.109C101.198 128.742 111.339 124.796 119.384 117.917L118.409 116.777ZM90.5667 127.61C80.3272 127.964 70.2705 124.834 62.0416 118.73L61.148 119.934C69.6496 126.241 80.0397 129.475 90.6186 129.109L90.5667 127.61ZM62.0416 118.73C53.8128 112.626 47.899 103.91 45.2677 94.0078L43.818 94.393C46.5365 104.623 52.6463 113.628 61.148 119.934L62.0416 118.73ZM45.2677 94.0078C42.6364 84.1058 43.4435 73.604 47.5567 64.2203L46.1829 63.6181C41.9333 73.3129 41.0995 84.1628 43.818 94.393L45.2677 94.0078ZM47.5567 64.2203C51.67 54.8367 58.846 47.1267 67.9109 42.3516L67.2118 41.0245C57.8464 45.9578 50.4325 53.9234 46.1829 63.6181L47.5567 64.2203ZM67.9109 42.3516C76.9757 37.5765 87.3927 36.0191 97.4578 37.9342L97.7381 36.4606C87.3394 34.4821 76.5771 36.0911 67.2118 41.0245L67.9109 42.3516Z" fill="#FF842D"/>
<path d="M67.3721 68.3867H103.825" stroke="#FF842D" stroke-width="1.5" stroke-linecap="round"/>
<path d="M62.4707 75.73L62.3718 81.6428V90.0557L62.2259 96.6603C62.1019 102.268 66.6141 106.881 72.2234 106.881H105.949C110.595 106.881 114.362 103.115 114.362 98.4685V98.4685M110.246 70.1542V70.1542C110.315 66.4372 107.321 63.3867 103.603 63.3867H85.8718H67.2969C64.5769 63.3867 62.3718 65.5918 62.3718 68.3118V68.3118C62.3718 71.0427 64.5938 73.2522 67.3246 73.2369L68.5452 73.23H75.0904H88.1808H105.949C110.595 73.23 114.362 76.9966 114.362 81.6428V81.6428V84.8867" stroke="#FF842D" stroke-width="1.5" stroke-linecap="round"/>
<path d="M102.372 90.3867C102.372 87.6253 104.61 85.3867 107.372 85.3867H117.372C118.476 85.3867 119.372 86.2821 119.372 87.3867V93.3867C119.372 94.4913 118.476 95.3867 117.372 95.3867H107.372C104.61 95.3867 102.372 93.1481 102.372 90.3867V90.3867Z" stroke="#FF842D" stroke-width="1.5"/>
<circle cx="107.807" cy="90.3809" r="1.99416" stroke="#FF842D" stroke-width="1.5"/>
<circle cx="116" cy="45" r="15.25" stroke="#FF842D" stroke-width="1.5"/>
<path d="M116 35V45L122.5 48" stroke="#FF842D" stroke-width="1.5" stroke-linecap="round"/>
</svg>
