<svg width="16" height="16" viewBox="0 0 16 16" fill="none" xmlns="http://www.w3.org/2000/svg">
  <circle cx="8" cy="8.25" r="7.5" fill="#DA493F"/>
  <path d="M4.93359 6.59375C4.83594 6.69141 4.83594 6.84766 4.93359 6.92578L5.32422 7.31641C5.40234 7.41406 5.55859 7.41406 5.65625 7.31641L7.49219 5.42188V10.2656C7.49219 10.4023 7.58984 10.5 7.72656 10.5H8.27344C8.39062 10.5 8.50781 10.4023 8.50781 10.2656V5.42188L10.3242 7.31641C10.4219 7.41406 10.5781 7.41406 10.6562 7.31641L11.0469 6.92578C11.1445 6.84766 11.1445 6.69141 11.0469 6.59375L8.15625 3.70312C8.05859 3.60547 7.92188 3.60547 7.82422 3.70312L4.93359 6.59375ZM11.5156 11.3594H4.48438C4.34766 11.3594 4.25 11.4766 4.25 11.5938V12.1406C4.25 12.2773 4.34766 12.375 4.48438 12.375H11.5156C11.6328 12.375 11.75 12.2773 11.75 12.1406V11.5938C11.75 11.4766 11.6328 11.3594 11.5156 11.3594Z" fill="black"/>
</svg>
