<svg xmlns="http://www.w3.org/2000/svg" width="1530" height="1530" fill="none"><path fill="#D81FFA" d="M1268.06 793.995c-94.51 172.452-251.48 302.165-438.65 362.475-194.612 63.34-317.969 20.01-489.578-60.56 188.834 17.02 319.573 15.52 480.804-110.513a768.361 768.361 0 00213.224-259.018 773.396 773.396 0 01234.2 67.616z"/><path fill="#E167FF" d="M1034.39 726.376a768.325 768.325 0 01-213.33 258.911C659.829 1111.32 529.09 1112.82 340.256 1095.81c183.271-48.58 305.665-94.8 413.937-268.33a769.606 769.606 0 0050.712-95.22 769.359 769.359 0 01229.485-5.884z"/><path fill="#0057FF" d="M1034.39 726.377a769.347 769.347 0 00-229.377 5.991 766.324 766.324 0 0061.304-221.145 772.51 772.51 0 01242.653-16.368 770.11 770.11 0 01-74.58 231.522z"/><path fill="#189FFF" d="M805.014 732.368a786.129 786.129 0 00-104.528 26.213c-194.611 63.336-268.86 171.179-360.121 337.329 28.887-187.547 61.838-314.114 223.069-440.146a769.46 769.46 0 01302.884-144.541 766.387 766.387 0 01-61.304 221.145z"/><path fill="#17EF97" d="M866.319 511.225a769.459 769.459 0 00-302.884 144.541C402.204 781.798 369.254 908.365 340.367 1095.91c-37.018-186.155-49.214-316.358 59.058-489.893 103.86-166.835 267.558-287.666 457.588-337.762a774.044 774.044 0 019.306 242.97z"/><path stroke="#fff" stroke-miterlimit="10" stroke-width="111.881" d="M765 1473.58c391.34 0 708.58-317.24 708.58-708.58 0-391.339-317.24-708.582-708.58-708.582C373.661 56.418 56.418 373.661 56.418 765c0 391.34 317.243 708.58 708.582 708.58z"/></svg>